P3
# feep.ppm
1 4
15
5  0  7  
0  10  0  
12  0  0  
15  0 15 
